<?xml version="1.0" encoding="UTF-8"?>
<svg id="_Слой_1" data-name="Слой 1" xmlns="http://www.w3.org/2000/svg" viewBox="0 0 360.22 203.62">
  <defs>
    <style>
      .cls-1 {
        fill: #eae7be;
        stroke: #eae7be;
        stroke-miterlimit: 10;
      }
    </style>
  </defs>
  <path class="cls-1" d="M353.63,38.19L194.96,196.86c-.84,.84-1.73,1.59-2.66,2.24-.2,.15-.41,.29-.61,.43-.29,.19-.58,.37-.87,.55-8.02,4.9-18.62,3.88-25.55-3.05L6.6,38.36C-1.53,30.23-1.53,17.05,6.6,8.92l2.15-2.15C16.88-1.36,30.06-1.36,38.19,6.77L180.03,148.61,322.04,6.6c8.13-8.13,21.31-8.13,29.44,0l2.15,2.15c8.13,8.13,8.13,21.31,0,29.44Z"/>
</svg>